<svg id="Layer_1" data-name="Layer 1" xmlns="http://www.w3.org/2000/svg" viewBox="0 0 543.24 91.08"><defs><style>.cls-1{fill:#0084b5;fill-rule:evenodd;}.cls-2{fill:#777878;}</style></defs><title>indodax-logo-2020</title><path class="cls-1" d="M0,2.57H18.58V64.16H0V2.57ZM13.23,7.92H5.35V58.81h7.88V7.92ZM6.62,56.48V10.9H12V56.48Z"/><polygon class="cls-1" points="92.75 52.61 100.9 52.61 100.9 8.34 99.63 8.34 99.63 51.34 93.31 51.34 50.22 8.34 32.64 8.34 32.64 59.23 40.52 59.23 40.52 16.22 46.85 16.22 89.94 59.23 107.52 59.23 107.52 6.38 112.87 6.38 112.87 64.58 87.77 64.58 45.88 22.6 45.88 64.58 27.29 64.58 27.29 2.99 52.39 2.99 94.28 44.96 94.28 2.99 106.25 2.99 106.25 57.96 90.42 57.96 47.41 14.95 39.26 14.95 39.26 54.62 33.91 54.62 33.91 9.6 49.74 9.6 92.75 52.61 92.75 52.61"/><path class="cls-1" d="M180.09,20.54a7.86,7.86,0,0,0-2.08-.21H139.33v31h42a22.89,22.89,0,0,0,3.31-.19,2.14,2.14,0,0,0,2.09-2.09,21.61,21.61,0,0,0,.19-3.32V19.31a21.68,21.68,0,0,0-.19-3.32,2.7,2.7,0,0,0-.62-1.46,2.73,2.73,0,0,0-1.47-.62,21.56,21.56,0,0,0-3.31-.2H132.71V63.34h-12V1.75h60.57a37.42,37.42,0,0,1,8.38.77,11.24,11.24,0,0,1,5.53,2.88,11.4,11.4,0,0,1,2.88,5.53,37.37,37.37,0,0,1,.77,8.38V45.77a38.32,38.32,0,0,1-.77,8.42,11.35,11.35,0,0,1-2.88,5.58,11,11,0,0,1-5.55,2.84,39.7,39.7,0,0,1-8.36.73H136.46V58h44.86a31.85,31.85,0,0,0,6.4-.52A6.16,6.16,0,0,0,193,52.18a32,32,0,0,0,.52-6.41V19.31A32,32,0,0,0,193,12.9a7,7,0,0,0-1.74-3.54,7,7,0,0,0-3.54-1.75,32.06,32.06,0,0,0-6.41-.51H126.1V58h1.26V8.36h54a28.22,28.22,0,0,1,5.19.39,6.75,6.75,0,0,1,3.59,1.77,6.71,6.71,0,0,1,1.77,3.59,28.27,28.27,0,0,1,.39,5.2V45.77a28,28,0,0,1-.39,5.25,6.24,6.24,0,0,1-5.36,5.31,28.16,28.16,0,0,1-5.19.39H134V15h47.34c2.77,0,4.33,1.56,4.33,4.33V45.77c0,2.78-1.56,4.33-4.33,4.33H143.08V44.75H178a13.65,13.65,0,0,0,1.69-.07.44.44,0,0,0,.52-.52,13.66,13.66,0,0,0,.08-1.69V22.62a8.3,8.3,0,0,0-.21-2.08Z"/><path class="cls-1" d="M351.47,20.54a7.86,7.86,0,0,0-2.08-.21H310.71v31h42a23,23,0,0,0,3.32-.19,2.64,2.64,0,0,0,1.46-.63,2.67,2.67,0,0,0,.62-1.46,21.61,21.61,0,0,0,.2-3.32V19.31a21.69,21.69,0,0,0-.2-3.32,2.67,2.67,0,0,0-.62-1.46,2.63,2.63,0,0,0-1.46-.62,21.69,21.69,0,0,0-3.32-.2H304.1V63.34h-12V1.75H352.7a37.37,37.37,0,0,1,8.38.77,11.24,11.24,0,0,1,5.53,2.88,11.19,11.19,0,0,1,2.88,5.53,37.37,37.37,0,0,1,.77,8.38V45.77a38.32,38.32,0,0,1-.77,8.42,11.27,11.27,0,0,1-2.88,5.58,11,11,0,0,1-5.54,2.84,39.85,39.85,0,0,1-8.37.73h-44V58h44a32,32,0,0,0,6.41-.52,6.16,6.16,0,0,0,5.29-5.29,32,32,0,0,0,.51-6.41V19.31a32,32,0,0,0-.51-6.41,7.06,7.06,0,0,0-1.75-3.54,7,7,0,0,0-3.54-1.75,32,32,0,0,0-6.41-.51H297.48V58h1.27V8.36H352.7a28.27,28.27,0,0,1,5.2.39,6.79,6.79,0,0,1,3.59,1.77,6.86,6.86,0,0,1,1.77,3.59,28.27,28.27,0,0,1,.39,5.2V45.77a28,28,0,0,1-.4,5.25,6.22,6.22,0,0,1-5.35,5.31,28.27,28.27,0,0,1-5.2.39H305.37V15H352.7c2.77,0,4.33,1.56,4.33,4.33V45.77c0,2.78-1.56,4.33-4.33,4.33H315.31V44.75h34.08a13.73,13.73,0,0,0,1.7-.07.89.89,0,0,0,.39-.12.93.93,0,0,0,.12-.4,13.73,13.73,0,0,0,.08-1.7V22.62a7.86,7.86,0,0,0-.21-2.08Z"/><path class="cls-1" d="M437.49,21.36a8.33,8.33,0,0,0-2.08-.2H399a13.65,13.65,0,0,0-1.69.07,1,1,0,0,0-.4.12,1,1,0,0,0-.12.4,13.65,13.65,0,0,0-.07,1.69V35.66h47.58V20.14a21.61,21.61,0,0,0-.2-3.32,2.53,2.53,0,0,0-.62-1.46,2.61,2.61,0,0,0-1.46-.63,22.94,22.94,0,0,0-3.32-.19h-43a22.94,22.94,0,0,0-3.32.19,2.61,2.61,0,0,0-1.46.63,2.61,2.61,0,0,0-.63,1.46,22.94,22.94,0,0,0-.19,3.32V54.78h-5.35V20.14a28.27,28.27,0,0,1,.39-5.2,6.79,6.79,0,0,1,1.77-3.59,6.74,6.74,0,0,1,3.55-1.77,27.78,27.78,0,0,1,5.24-.39h43a28.27,28.27,0,0,1,5.2.39,6.79,6.79,0,0,1,3.59,1.77,6.79,6.79,0,0,1,1.77,3.59,28.27,28.27,0,0,1,.39,5.2V41H391.38V20.14c0-2.78,1.55-4.33,4.33-4.33h43c2.77,0,4.33,1.55,4.33,4.33V31.91h-5.35V23.44a8.33,8.33,0,0,0-.2-2.08Zm6.82,26.26H396.73V64.16H378.15v-44a39.73,39.73,0,0,1,.72-8.37,11.15,11.15,0,0,1,2.84-5.55,11.35,11.35,0,0,1,5.58-2.88,38.32,38.32,0,0,1,8.42-.77h43a38,38,0,0,1,8.38.77,11.36,11.36,0,0,1,5.53,2.88,11.27,11.27,0,0,1,2.88,5.54,37.37,37.37,0,0,1,.78,8.38v44H437.69V54.24H401V48.89h42v9.92h7.88V20.14a32,32,0,0,0-.51-6.41,6.86,6.86,0,0,0-1.75-3.54,6.86,6.86,0,0,0-3.54-1.75,32,32,0,0,0-6.41-.52h-43a32,32,0,0,0-6.41.52,6.86,6.86,0,0,0-3.54,1.75A6.86,6.86,0,0,0,384,13.73a32,32,0,0,0-.52,6.41V58.81h7.89V42.27h58.28v12.8h-5.35V47.62Z"/><path class="cls-1" d="M535.69,13.1,530.1,7.52l-22,21.91H486.34l-13.09-13.1L477,12.58l11.67,11.5H506L530.1,0l13.09,13.1-25,25,12.41,12.41-3.76,3.76L510.71,38l25-24.9ZM485.87,30.69h5.34L468.28,53.63l5.58,5.59,21.91-21.91h12.34l22,21.91,5.59-5.59L523.38,41.41l3.73-3.87,16.13,16.1L530.1,66.73,506,42.66h-8.09L473.86,66.73l-13.1-13.1L481,33.37,460.76,13.1,473.86,0l16.92,16.92-3.86,3.74L473.86,7.52l-5.58,5.58,17.59,17.59ZM495.13,36,476.92,54.33l-3.76-3.76L493,30.69h15.63l18.21-18.12,3.75,3.76L511,36Z"/><polygon class="cls-1" points="278.46 45.16 278.91 23.14 263.18 7.43 226.93 7.39 212.1 22.65 212.1 44.88 226.78 58.57 261.8 57.98 271.67 42.21 271.9 26.04 260.29 14.42 229.86 14.39 219.08 26.04 219.73 42.31 230.02 51.6 257.57 51.37 264.89 40.35 264.89 28.95 257.38 21.44 232.78 21.41 226.42 28.91 226.76 39.47 232.94 45.27 253.85 45.06 253.72 50.05 230.68 50.25 221.43 41.75 220.79 26.71 230.37 15.8 259.69 15.84 270.5 26.64 270.5 41.77 260.89 56.92 227.53 57 213.94 44.61 213.46 23.79 227.48 8.79 262.61 8.82 277.51 23.73 277.51 44.7 264.67 63.66 224.51 64.18 206.5 47.23 206.5 20.33 224.6 1.77 265.52 1.81 284.52 20.82 284.04 47.26 275.17 60.9 270.39 57.62 278.46 45.16 278.46 45.16"/><path class="cls-1" d="M9.29,8.56a3.6,3.6,0,1,1-3.6,3.6,3.6,3.6,0,0,1,3.6-3.6Z"/><path class="cls-1" d="M9.29,51a3.6,3.6,0,1,1-3.6,3.6A3.6,3.6,0,0,1,9.29,51Z"/><path class="cls-1" d="M36.58,51.39A3.6,3.6,0,1,1,33,55a3.6,3.6,0,0,1,3.6-3.6Z"/><path class="cls-1" d="M110.19,3.18a3.6,3.6,0,1,1-3.6,3.6,3.6,3.6,0,0,1,3.6-3.6Z"/><path class="cls-1" d="M143.57,43.83a3.6,3.6,0,1,1-3.6,3.6,3.6,3.6,0,0,1,3.6-3.6Z"/><path class="cls-2" d="M3.44,77.94V90.79H.62V77.94Z"/><path class="cls-2" d="M12.41,77.94l5.36,8.62h0V77.94h2.64V90.79H17.63l-5.35-8.6h0v8.6H9.6V77.94Z"/><path class="cls-2" d="M32.15,77.94a6.67,6.67,0,0,1,2.31.39,5,5,0,0,1,1.86,1.19,5.48,5.48,0,0,1,1.22,2A7.86,7.86,0,0,1,38,84.29a8.86,8.86,0,0,1-.36,2.59,5.65,5.65,0,0,1-1.09,2.06,5.12,5.12,0,0,1-1.81,1.35,6.17,6.17,0,0,1-2.57.5H26.61V77.94ZM32,88.41a3.42,3.42,0,0,0,1.19-.2,2.69,2.69,0,0,0,1-.65,3.37,3.37,0,0,0,.72-1.2,5.25,5.25,0,0,0,.27-1.8A7.75,7.75,0,0,0,35,82.81a3.57,3.57,0,0,0-.62-1.35,2.78,2.78,0,0,0-1.15-.85,4.5,4.5,0,0,0-1.75-.3h-2v8.1Z"/><path class="cls-2" d="M43.49,81.74a6.55,6.55,0,0,1,1.24-2.15,5.79,5.79,0,0,1,2-1.44,7.06,7.06,0,0,1,5.32,0,5.75,5.75,0,0,1,2,1.44,6.38,6.38,0,0,1,1.24,2.15,8.06,8.06,0,0,1,.44,2.68A7.75,7.75,0,0,1,55.26,87,6.1,6.1,0,0,1,54,89.15a5.68,5.68,0,0,1-2,1.41,7.06,7.06,0,0,1-5.32,0,5.72,5.72,0,0,1-2-1.41A6.26,6.26,0,0,1,43.49,87a7.74,7.74,0,0,1-.43-2.62A8.05,8.05,0,0,1,43.49,81.74ZM46.07,86a4.3,4.3,0,0,0,.61,1.38,3,3,0,0,0,1.08,1,3.23,3.23,0,0,0,1.62.37A3.29,3.29,0,0,0,51,88.35a3.18,3.18,0,0,0,1.08-1,4.29,4.29,0,0,0,.6-1.38,6.31,6.31,0,0,0,.19-1.57,6.82,6.82,0,0,0-.19-1.64,4.26,4.26,0,0,0-.6-1.41,3,3,0,0,0-1.08-1A3.29,3.29,0,0,0,49.38,80a3.23,3.23,0,0,0-1.62.37,2.86,2.86,0,0,0-1.08,1,4.28,4.28,0,0,0-.61,1.41,7.36,7.36,0,0,0-.18,1.64A6.81,6.81,0,0,0,46.07,86Z"/><path class="cls-2" d="M64.1,77.94l5.37,8.62h0V77.94h2.65V90.79H69.32L64,82.19h0v8.6H61.29V77.94Z"/><path class="cls-2" d="M87.92,77.94v2.37H81.13v2.76h6.23v2.19H81.13v3.15h6.93v2.38H78.3V77.94Z"/><path class="cls-2" d="M95.8,87.62a2.1,2.1,0,0,0,.62.73,2.61,2.61,0,0,0,.91.41,4.32,4.32,0,0,0,1.08.14,6,6,0,0,0,.81-.06,3.06,3.06,0,0,0,.81-.25,1.79,1.79,0,0,0,.63-.49,1.23,1.23,0,0,0,.25-.8,1.15,1.15,0,0,0-.33-.85,2.64,2.64,0,0,0-.87-.54,9.48,9.48,0,0,0-1.23-.38c-.45-.1-.92-.22-1.38-.36a11.51,11.51,0,0,1-1.41-.44,5,5,0,0,1-1.22-.67,3.3,3.3,0,0,1-.88-1,3.14,3.14,0,0,1-.33-1.5,3.4,3.4,0,0,1,.42-1.72,3.9,3.9,0,0,1,1.11-1.21,4.59,4.59,0,0,1,1.55-.72,6.45,6.45,0,0,1,1.73-.24,8.16,8.16,0,0,1,1.93.23,4.75,4.75,0,0,1,1.65.73,3.6,3.6,0,0,1,1.14,1.28,4,4,0,0,1,.43,1.9h-2.74a2.32,2.32,0,0,0-.24-1,1.67,1.67,0,0,0-.55-.6,2.41,2.41,0,0,0-.79-.3,4.75,4.75,0,0,0-1-.09,3.14,3.14,0,0,0-.68.07,1.8,1.8,0,0,0-.62.25,1.52,1.52,0,0,0-.46.45,1.41,1.41,0,0,0,0,1.3,1.36,1.36,0,0,0,.57.43,8.14,8.14,0,0,0,1.17.4l2,.5c.24,0,.57.13,1,.26a5,5,0,0,1,1.27.6,4,4,0,0,1,1.09,1.11,3.18,3.18,0,0,1,.46,1.77,4,4,0,0,1-.34,1.64,3.59,3.59,0,0,1-1,1.31,4.91,4.91,0,0,1-1.68.85,7.64,7.64,0,0,1-2.31.31,8.31,8.31,0,0,1-2.06-.26A5.28,5.28,0,0,1,94.48,90a4.09,4.09,0,0,1-1.22-1.42,4.29,4.29,0,0,1-.43-2.06h2.74A2.3,2.3,0,0,0,95.8,87.62Z"/><path class="cls-2" d="M111.82,77.94V90.79H109V77.94Z"/><path class="cls-2" d="M124.38,77.94l4.81,12.85h-2.93l-1-2.86h-4.8l-1,2.86h-2.84l4.85-12.85Zm.17,7.88-1.62-4.71h0l-1.67,4.71Z"/><path class="cls-2" d="M148.7,77.94a8,8,0,0,1,1.68.16,3.58,3.58,0,0,1,1.29.53,2.5,2.5,0,0,1,.84,1,3.41,3.41,0,0,1,.3,1.51,2.76,2.76,0,0,1-.45,1.62,3.12,3.12,0,0,1-1.3,1.07A3,3,0,0,1,152.83,85a3.92,3.92,0,0,1,.21,3.75,3.26,3.26,0,0,1-1,1.16,4.33,4.33,0,0,1-1.46.66,6.25,6.25,0,0,1-1.68.22h-6.23V77.94Zm-.36,5.2a2,2,0,0,0,1.24-.36,1.35,1.35,0,0,0,.49-1.17,1.48,1.48,0,0,0-.16-.74,1.24,1.24,0,0,0-.43-.45,1.74,1.74,0,0,0-.63-.22,3.38,3.38,0,0,0-.72-.07h-2.65v3Zm.16,5.45a3.5,3.5,0,0,0,.8-.08,1.77,1.77,0,0,0,.66-.27,1.34,1.34,0,0,0,.46-.51,1.83,1.83,0,0,0,.17-.83,1.66,1.66,0,0,0-.56-1.41,2.37,2.37,0,0,0-1.47-.42h-3.08v3.52Z"/><path class="cls-2" d="M161.82,77.94V90.79H159V77.94Z"/><path class="cls-2" d="M167,80.31V77.94H177.5v2.37h-3.85V90.79h-2.83V80.31Z"/><path class="cls-2" d="M190.89,81.37a2.5,2.5,0,0,0-.63-.71,2.64,2.64,0,0,0-.85-.48,2.8,2.8,0,0,0-1-.17,3.23,3.23,0,0,0-1.62.37,2.94,2.94,0,0,0-1.08,1,4.06,4.06,0,0,0-.6,1.41,6.82,6.82,0,0,0-.19,1.64,6.31,6.31,0,0,0,.19,1.57,4.08,4.08,0,0,0,.6,1.38,3.09,3.09,0,0,0,1.08,1,3.23,3.23,0,0,0,1.62.37,2.59,2.59,0,0,0,2-.79,3.61,3.61,0,0,0,.89-2.09h2.74A6.54,6.54,0,0,1,193.5,88a5.12,5.12,0,0,1-2.91,2.7,6.35,6.35,0,0,1-2.18.36,6.51,6.51,0,0,1-2.66-.52,5.68,5.68,0,0,1-2-1.41A6.28,6.28,0,0,1,182.52,87a7.74,7.74,0,0,1-.43-2.62,8.05,8.05,0,0,1,.43-2.68,6.57,6.57,0,0,1,1.25-2.15,5.75,5.75,0,0,1,2-1.44,6.68,6.68,0,0,1,2.66-.52,6.31,6.31,0,0,1,2,.31,5.36,5.36,0,0,1,1.69.89,4.68,4.68,0,0,1,1.23,1.45,5.11,5.11,0,0,1,.61,2h-2.73A2.28,2.28,0,0,0,190.89,81.37Z"/><path class="cls-2" d="M199.53,81.74a6.55,6.55,0,0,1,1.24-2.15,5.79,5.79,0,0,1,2-1.44,7.06,7.06,0,0,1,5.32,0,5.75,5.75,0,0,1,2,1.44,6.57,6.57,0,0,1,1.25,2.15,8.32,8.32,0,0,1,.43,2.68,8,8,0,0,1-.43,2.62,6.28,6.28,0,0,1-1.25,2.11,5.68,5.68,0,0,1-2,1.41,7.06,7.06,0,0,1-5.32,0,5.72,5.72,0,0,1-2-1.41A6.26,6.26,0,0,1,199.53,87a7.74,7.74,0,0,1-.43-2.62A8.05,8.05,0,0,1,199.53,81.74ZM202.12,86a4.08,4.08,0,0,0,.6,1.38,3,3,0,0,0,1.08,1,3.23,3.23,0,0,0,1.62.37,3.29,3.29,0,0,0,1.62-.37,3.18,3.18,0,0,0,1.08-1,4.29,4.29,0,0,0,.6-1.38,6.31,6.31,0,0,0,.19-1.57,6.82,6.82,0,0,0-.19-1.64,4.26,4.26,0,0,0-.6-1.41,3,3,0,0,0-1.08-1,3.29,3.29,0,0,0-1.62-.37,3.23,3.23,0,0,0-1.62.37,2.86,2.86,0,0,0-1.08,1,4.06,4.06,0,0,0-.6,1.41,6.82,6.82,0,0,0-.19,1.64A6.31,6.31,0,0,0,202.12,86Z"/><path class="cls-2" d="M220.16,77.94V90.79h-2.82V77.94Z"/><path class="cls-2" d="M229.12,77.94l5.37,8.62h0V77.94h2.65V90.79h-2.82L229,82.19h0v8.6h-2.64V77.94Z"/><path class="cls-2" d="M258.41,77.94l4.81,12.85h-2.94l-1-2.86h-4.8l-1,2.86h-2.85l4.86-12.85Zm.16,7.88L257,81.11h0l-1.68,4.71Z"/><path class="cls-2" d="M270.81,77.94l5.37,8.62h0V77.94h2.65V90.79H276l-5.34-8.6h0v8.6H268V77.94Z"/><path class="cls-2" d="M290.56,77.94a6.67,6.67,0,0,1,2.31.39,5.12,5.12,0,0,1,1.86,1.19,5.48,5.48,0,0,1,1.22,2,8.09,8.09,0,0,1,.44,2.79,8.86,8.86,0,0,1-.36,2.59,5.65,5.65,0,0,1-1.09,2.06,5.07,5.07,0,0,1-1.82,1.35,6.12,6.12,0,0,1-2.56.5H285V77.94Zm-.2,10.47a3.46,3.46,0,0,0,1.19-.2,2.65,2.65,0,0,0,1-.65,3.37,3.37,0,0,0,.72-1.2,5,5,0,0,0,.27-1.8,7.78,7.78,0,0,0-.18-1.75,3.58,3.58,0,0,0-.63-1.35,2.68,2.68,0,0,0-1.14-.85,4.5,4.5,0,0,0-1.75-.3h-2v8.1Z"/><path class="cls-2" d="M318.94,81.37a2.5,2.5,0,0,0-.63-.71,2.64,2.64,0,0,0-.85-.48,2.8,2.8,0,0,0-1-.17,3.23,3.23,0,0,0-1.62.37,3,3,0,0,0-1.08,1,4.06,4.06,0,0,0-.6,1.41,6.82,6.82,0,0,0-.19,1.64,6.31,6.31,0,0,0,.19,1.57,4.08,4.08,0,0,0,.6,1.38,3.18,3.18,0,0,0,1.08,1,3.23,3.23,0,0,0,1.62.37,2.63,2.63,0,0,0,2-.79,3.74,3.74,0,0,0,.89-2.09h2.73a6.78,6.78,0,0,1-.55,2.18,5.29,5.29,0,0,1-1.19,1.65,5.09,5.09,0,0,1-1.73,1,6.35,6.35,0,0,1-2.18.36,6.43,6.43,0,0,1-2.65-.52,5.62,5.62,0,0,1-2-1.41A6.28,6.28,0,0,1,310.57,87a8,8,0,0,1-.43-2.62,8.32,8.32,0,0,1,.43-2.68,6.57,6.57,0,0,1,1.25-2.15,5.7,5.7,0,0,1,2-1.44,6.59,6.59,0,0,1,2.65-.52,6.31,6.31,0,0,1,2,.31,5.36,5.36,0,0,1,1.69.89,4.68,4.68,0,0,1,1.23,1.45,5,5,0,0,1,.61,2h-2.73A2.28,2.28,0,0,0,318.94,81.37Z"/><path class="cls-2" d="M334.64,77.94a4.05,4.05,0,0,1,1.56.28,3.57,3.57,0,0,1,1.19.76,3.29,3.29,0,0,1,.75,1.13,3.63,3.63,0,0,1,.26,1.37,3.92,3.92,0,0,1-.47,2,3,3,0,0,1-1.56,1.27v0a2.19,2.19,0,0,1,.86.44,2.37,2.37,0,0,1,.56.7,3.55,3.55,0,0,1,.32.9,7.8,7.8,0,0,1,.13,1c0,.2,0,.44,0,.72s0,.56.06.84a6.67,6.67,0,0,0,.14.82,2,2,0,0,0,.3.66H336a5,5,0,0,1-.28-1.46c0-.56-.09-1.1-.17-1.62a2.57,2.57,0,0,0-.61-1.48,2.11,2.11,0,0,0-1.53-.46h-2.82v5h-2.83V77.94Zm-1,5.81a2.12,2.12,0,0,0,1.46-.43,1.81,1.81,0,0,0,.49-1.4,1.72,1.72,0,0,0-.49-1.36,2.12,2.12,0,0,0-1.46-.43h-3.09v3.62Z"/><path class="cls-2" d="M342.33,77.94h3.16l3,5.07,3-5.07h3.15l-4.77,7.92v4.93H347v-5Z"/><path class="cls-2" d="M365.19,77.94a5.27,5.27,0,0,1,2.05.35,3.8,3.8,0,0,1,1.37.92,3.55,3.55,0,0,1,.78,1.32,5,5,0,0,1,0,3,3.4,3.4,0,0,1-.78,1.32,3.69,3.69,0,0,1-1.37.93,5.46,5.46,0,0,1-2.05.35h-3v4.61h-2.83V77.94Zm-.78,6a5.69,5.69,0,0,0,.94-.07,2,2,0,0,0,.79-.28,1.47,1.47,0,0,0,.55-.58,2.44,2.44,0,0,0,0-2,1.57,1.57,0,0,0-.55-.59,2.17,2.17,0,0,0-.79-.27,5.67,5.67,0,0,0-.94-.08h-2.19V84Z"/><path class="cls-2" d="M374.06,80.31V77.94h10.53v2.37h-3.85V90.79h-2.83V80.31Z"/><path class="cls-2" d="M389.61,81.74a6.55,6.55,0,0,1,1.24-2.15,5.79,5.79,0,0,1,2-1.44,7.06,7.06,0,0,1,5.32,0,5.75,5.75,0,0,1,2,1.44,6.38,6.38,0,0,1,1.24,2.15,8.06,8.06,0,0,1,.44,2.68,7.75,7.75,0,0,1-.44,2.62,6.1,6.1,0,0,1-1.24,2.11,5.68,5.68,0,0,1-2,1.41,7.06,7.06,0,0,1-5.32,0,5.72,5.72,0,0,1-2-1.41A6.26,6.26,0,0,1,389.61,87a7.74,7.74,0,0,1-.43-2.62A8.05,8.05,0,0,1,389.61,81.74ZM392.2,86a4.08,4.08,0,0,0,.6,1.38,3,3,0,0,0,1.08,1,3.23,3.23,0,0,0,1.62.37,3.29,3.29,0,0,0,1.62-.37,3.18,3.18,0,0,0,1.08-1,4.29,4.29,0,0,0,.6-1.38,6.31,6.31,0,0,0,.19-1.57,6.82,6.82,0,0,0-.19-1.64,4.26,4.26,0,0,0-.6-1.41,3,3,0,0,0-1.08-1A3.29,3.29,0,0,0,395.5,80a3.23,3.23,0,0,0-1.62.37,2.86,2.86,0,0,0-1.08,1,4.06,4.06,0,0,0-.6,1.41,6.82,6.82,0,0,0-.19,1.64A6.31,6.31,0,0,0,392.2,86Z"/><path class="cls-2" d="M425.7,77.94v2.37h-6.78v2.76h6.22v2.19h-6.22v3.15h6.93v2.38h-9.76V77.94Z"/><path class="cls-2" d="M430.44,77.94h3.27l2.52,4.1,2.61-4.1h3.1l-4.12,6.14,4.48,6.71h-3.37l-2.81-4.45-2.86,4.45h-3.17l4.49-6.73Z"/><path class="cls-2" d="M455.35,81.37a2.85,2.85,0,0,0-.63-.71,2.69,2.69,0,0,0-.86-.48,2.77,2.77,0,0,0-1-.17,3.29,3.29,0,0,0-1.62.37,3,3,0,0,0-1.08,1,4.48,4.48,0,0,0-.6,1.41,6.82,6.82,0,0,0-.19,1.64,6.31,6.31,0,0,0,.19,1.57,4.52,4.52,0,0,0,.6,1.38,3.18,3.18,0,0,0,1.08,1,3.29,3.29,0,0,0,1.62.37,2.62,2.62,0,0,0,2-.79,3.67,3.67,0,0,0,.89-2.09h2.74A6.78,6.78,0,0,1,458,88a5.14,5.14,0,0,1-1.19,1.65,5,5,0,0,1-1.73,1,6.31,6.31,0,0,1-2.18.36,6.43,6.43,0,0,1-2.65-.52,5.62,5.62,0,0,1-2-1.41A6.26,6.26,0,0,1,447,87a7.74,7.74,0,0,1-.43-2.62,8.05,8.05,0,0,1,.43-2.68,6.55,6.55,0,0,1,1.24-2.15,5.7,5.7,0,0,1,2-1.44,6.59,6.59,0,0,1,2.65-.52,6.31,6.31,0,0,1,2,.31,5.36,5.36,0,0,1,1.69.89,4.85,4.85,0,0,1,1.24,1.45,5.29,5.29,0,0,1,.61,2h-2.74A2.26,2.26,0,0,0,455.35,81.37Z"/><path class="cls-2" d="M466.94,77.94v4.93h5.2V77.94H475V90.79h-2.83V85.25h-5.2v5.54h-2.83V77.94Z"/><path class="cls-2" d="M487.53,77.94l4.81,12.85H489.4l-1-2.86h-4.8l-1,2.86h-2.85l4.86-12.85Zm.16,7.88-1.62-4.71h0l-1.68,4.71Z"/><path class="cls-2" d="M499.93,77.94l5.37,8.62h0V77.94H508V90.79h-2.83l-5.34-8.6h0v8.6h-2.64V77.94Z"/><path class="cls-2" d="M521.75,90.69a4.69,4.69,0,0,1-1.85.39,6.48,6.48,0,0,1-2.66-.52,5.62,5.62,0,0,1-2-1.41A6.26,6.26,0,0,1,514,87a7.74,7.74,0,0,1-.43-2.62,8.05,8.05,0,0,1,.43-2.68,6.55,6.55,0,0,1,1.24-2.15,5.7,5.7,0,0,1,2-1.44,6.64,6.64,0,0,1,2.66-.52,6.15,6.15,0,0,1,1.91.3,5.59,5.59,0,0,1,1.68.87,5,5,0,0,1,1.23,1.42,4.89,4.89,0,0,1,.59,2h-2.7a2.66,2.66,0,0,0-1-1.62A2.82,2.82,0,0,0,519.9,80a3.23,3.23,0,0,0-1.62.37,2.86,2.86,0,0,0-1.08,1,4.28,4.28,0,0,0-.61,1.41,7.36,7.36,0,0,0-.19,1.64,6.82,6.82,0,0,0,.19,1.57,4.3,4.3,0,0,0,.61,1.38,3,3,0,0,0,1.08,1,3.23,3.23,0,0,0,1.62.37,3.07,3.07,0,0,0,2.16-.71A3.13,3.13,0,0,0,523,86h-2.85V83.84h5.4v7h-1.8l-.29-1.46A4.21,4.21,0,0,1,521.75,90.69Z"/><path class="cls-2" d="M541.08,77.94v2.37H534.3v2.76h6.22v2.19H534.3v3.15h6.93v2.38h-9.76V77.94Z"/><path class="cls-1" d="M137,57.06a3.6,3.6,0,1,1-3.6,3.6,3.6,3.6,0,0,1,3.6-3.6Z"/><path class="cls-1" d="M255,43.75a3.6,3.6,0,1,1-3.6,3.6,3.6,3.6,0,0,1,3.6-3.6Z"/><path class="cls-1" d="M272.6,56.06a3.6,3.6,0,1,1-3.6,3.6,3.6,3.6,0,0,1,3.6-3.6Z"/><path class="cls-1" d="M315,43.83a3.6,3.6,0,1,1-3.6,3.6,3.6,3.6,0,0,1,3.6-3.6Z"/><path class="cls-1" d="M308.33,57.06a3.6,3.6,0,1,1-3.6,3.6,3.6,3.6,0,0,1,3.6-3.6Z"/><path class="cls-1" d="M440.37,27.82a3.6,3.6,0,1,1-3.6,3.6,3.6,3.6,0,0,1,3.6-3.6Z"/><path class="cls-1" d="M387.44,51a3.6,3.6,0,1,1-3.6,3.6,3.6,3.6,0,0,1,3.6-3.6Z"/><path class="cls-1" d="M401,48a3.6,3.6,0,1,1-3.6,3.6A3.6,3.6,0,0,1,401,48Z"/><path class="cls-1" d="M447,51a3.6,3.6,0,1,1-3.6,3.6A3.6,3.6,0,0,1,447,51Z"/><path class="cls-1" d="M473.86,9.36a3.6,3.6,0,1,1-3.6,3.6,3.6,3.6,0,0,1,3.6-3.6Z"/><path class="cls-1" d="M489.91,16.39a3.6,3.6,0,1,1-3.6,3.6,3.6,3.6,0,0,1,3.6-3.6Z"/><path class="cls-1" d="M524,34.79a3.6,3.6,0,1,1-3.59,3.6,3.6,3.6,0,0,1,3.59-3.6Z"/><path class="cls-1" d="M529.86,9.65a3.6,3.6,0,1,1-3.6,3.6,3.6,3.6,0,0,1,3.6-3.6Z"/><path class="cls-1" d="M529.89,49.86a3.6,3.6,0,1,1-3.6,3.6,3.6,3.6,0,0,1,3.6-3.6Z"/><path class="cls-1" d="M473.88,49.84a3.6,3.6,0,1,1-3.6,3.6,3.6,3.6,0,0,1,3.6-3.6Z"/></svg>